<svg xmlns="http://www.w3.org/2000/svg" viewBox="0 0 512 512">
  <title>裁</title>
  <rect width="512" height="512" fill="#0b1220"/>
  <path fill="#f6f8fb" d="M277.168 140.297 Q277.168 140.297 277.168 160.964 Q241.881 160.963 206.593 160.964 Q171.304 160.965 136.016 160.964 Q136.016 160.964 136.016 140.297 Q171.301 140.297 206.591 140.297 Q241.881 140.297 277.168 140.297 Z M397.803 192.246 Q397.803 192.246 397.803 213.429 Q328.267 213.428 258.732 213.429 Q189.194 213.429 119.658 213.429 Q119.658 213.429 119.658 192.246 Q189.193 192.246 258.729 192.246 Q328.267 192.246 397.803 192.246 Z M198.424 113.652 Q198.424 113.652 200.363 113.652 Q200.363 113.652 220.631 113.652 Q220.631 135.948 220.631 158.262 Q220.631 180.541 220.631 202.837 Q220.631 202.837 198.424 202.837 Q198.424 180.547 198.424 158.234 Q198.424 135.948 198.424 113.652 Z M318.307 204.771 Q320.980 253.130 327.863 286.226 Q336.404 327.296 347.825 350.273 Q359.014 372.782 366.755 373.248 Q371.691 373.545 375.291 355.038 Q378.075 340.723 379.762 326.191 Q379.762 326.191 399.360 336.625 Q395.491 361.879 389.416 378.140 Q381.968 398.075 369.735 398.467 Q360.218 398.772 350.028 388.576 Q326.591 365.124 311.810 311.384 Q300.107 268.834 296.194 207.424 Q293.071 158.416 293.395 113.524 Q293.395 113.524 315.460 113.524 Q315.661 156.905 318.307 204.771 Z M329.336 129.474 Q329.336 129.474 346.245 118.892 Q358.606 132.667 369.227 146.439 Q378.803 158.856 386.866 171.536 Q386.866 171.536 369.832 183.705 Q362.483 171.824 352.934 158.830 Q342.721 144.933 329.336 129.474 Z M363.355 232.360 Q363.355 232.360 383.050 240.793 Q368.507 294.942 337.660 336.135 Q306.983 377.099 258.705 397.761 Q258.705 397.761 246.603 379.840 Q289.265 362.469 319.746 323.999 Q348.085 288.233 363.355 232.360 Z M251.479 302.302 Q259.849 293.189 268.704 280.942 Q268.704 280.942 284.794 293.100 Q281.167 298.451 273.304 307.790 Q266.387 316.006 249.982 330.484 Q249.982 330.484 236.694 316.956 Q244.284 310.135 251.479 302.302 Z M203.407 296.621 Q203.407 296.621 217.363 283.134 Q232.460 296.876 247.314 312.851 Q260.850 327.407 274.661 345.676 Q274.661 345.676 258.535 361.550 Q245.846 343.115 232.831 327.826 Q218.804 311.348 203.407 296.621 Z M185.724 261.569 Q185.724 261.569 204.626 261.569 Q204.626 261.569 207.111 261.569 Q199.934 285.063 176.351 307.696 Q152.704 330.390 125.014 343.919 Q125.014 343.919 112.640 323.861 Q136.354 313.608 158.051 295.908 Q178.467 279.253 185.724 261.569 Z M166.247 363.667 Q166.247 344.077 166.247 330.550 Q166.247 318.069 166.247 304.922 Q166.247 304.922 187.928 284.530 Q187.928 309.081 187.928 328.693 Q187.928 346.110 187.928 367.197 Q198.726 363.446 209.396 358.997 Q219.555 354.760 230.385 349.877 Q230.385 349.877 234.220 370.972 Q215.969 378.451 198.314 384.527 Q180.089 390.798 161.767 395.807 Q161.767 395.807 156.660 376.078 Q161.247 374.118 163.439 371.553 Q166.249 368.264 166.247 363.667 Z M282.303 250.937 Q282.303 250.937 282.303 272.093 Q241.643 272.092 200.985 272.093 Q160.324 272.094 119.664 272.093 Q119.664 272.093 119.664 250.937 Q160.322 250.937 200.982 250.937 Q241.643 250.937 282.303 250.937 Z M183.183 224.157 Q183.183 224.157 206.570 220.437 Q210.150 229.749 213.025 239.619 Q216.036 249.955 218.973 261.515 Q218.973 261.515 196.152 261.515 Q193.604 252.294 190.478 242.854 Q187.298 233.253 183.183 224.157 Z "/>
</svg>
